<svg width="16" height="16" viewBox="0 0 16 16" fill="none" xmlns="http://www.w3.org/2000/svg">
<path d="M9.66604 3.93498C9.94485 3.60933 9.94462 3.0816 9.66554 2.75627C9.38645 2.43095 8.93419 2.43121 8.65539 2.75686L9.66604 3.93498ZM5.58928 7.51745L5.08396 6.92839C4.80535 7.25381 4.80535 7.78108 5.08396 8.1065L5.58928 7.51745ZM8.65539 12.2781C8.93419 12.6037 9.38645 12.604 9.66554 12.2786C9.94462 11.9533 9.94485 11.4256 9.66604 11.0999L8.65539 12.2781ZM8.65539 2.75686L5.08396 6.92839L6.09461 8.1065L9.66604 3.93498L8.65539 2.75686ZM5.08396 8.1065L8.65539 12.2781L9.66604 11.0999L6.09461 6.92839L5.08396 8.1065Z" fill="#000201"/>
</svg>
