<svg width="16" height="16" viewBox="0 0 16 16" fill="none" xmlns="http://www.w3.org/2000/svg">
<path d="M6.33396 3.93498C6.05515 3.60933 6.05538 3.0816 6.33446 2.75627C6.61355 2.43095 7.06581 2.43121 7.34461 2.75686L6.33396 3.93498ZM10.4107 7.51745L10.916 6.92839C11.1947 7.25382 11.1947 7.78109 10.916 8.10651L10.4107 7.51745ZM7.34461 12.278C7.06581 12.6037 6.61355 12.604 6.33446 12.2787C6.05538 11.9533 6.05515 11.4256 6.33396 11.0999L7.34461 12.278ZM7.34461 2.75686L10.916 6.92839L9.90539 8.10651L6.33396 3.93498L7.34461 2.75686ZM10.916 8.10651L7.34461 12.278L6.33396 11.0999L9.90539 6.92839L10.916 8.10651Z" fill="#000201"/>
</svg>
