<svg width="3" height="21" viewBox="0 0 3 21" fill="none" xmlns="http://www.w3.org/2000/svg">
<g clip-path="url(#clip0_9_3685)">
<path d="M1.60754 8.34155C1.50601 8.34155 1.42294 9.0923 1.42294 10.0099C1.42294 10.9275 1.50601 11.6782 1.60754 11.6782C1.70907 11.6782 1.79214 10.9275 1.79214 10.0099C1.79214 9.0923 1.70907 8.34155 1.60754 8.34155ZM2.16134 8.34155C2.05981 8.34155 1.97674 9.0923 1.97674 10.0099C1.97674 10.9275 2.05981 11.6782 2.16134 11.6782C2.26286 11.6782 2.34593 10.9275 2.34593 10.0099C2.34593 9.0923 2.26286 8.34155 2.16134 8.34155ZM1.05374 8.34155C0.95221 8.34155 0.869141 9.0923 0.869141 10.0099C0.869141 10.9275 0.95221 11.6782 1.05374 11.6782C1.15527 11.6782 1.23834 10.9275 1.23834 10.0099C1.23834 9.0923 1.15527 8.34155 1.05374 8.34155Z" fill="#000201"/>
</g>
<defs>
<clipPath id="clip0_9_3685">
<rect width="2.21519" height="20.02" fill="white" transform="translate(0.5)"/>
</clipPath>
</defs>
</svg>
