<svg width="21" height="20" viewBox="0 0 21 20" fill="none" xmlns="http://www.w3.org/2000/svg">
<path d="M18.4353 6.1925C18.3587 6.08173 18.2563 5.99119 18.137 5.92864C18.0177 5.86608 17.885 5.83338 17.7503 5.83334H6.36116L5.39949 3.525C5.2734 3.22102 5.05988 2.96133 4.78601 2.77885C4.51214 2.59636 4.19025 2.49932 3.86116 2.5H1.91699V4.16667H3.86116L7.81449 13.6542C7.87781 13.806 7.98464 13.9356 8.12151 14.0268C8.25838 14.118 8.41918 14.1667 8.58366 14.1667H15.2503C15.5978 14.1667 15.9087 13.9508 16.0312 13.6267L18.5312 6.96C18.5784 6.83385 18.5944 6.69813 18.5777 6.56446C18.561 6.43079 18.5121 6.30316 18.4353 6.1925ZM14.6728 12.5H9.13949L7.05616 7.5H16.5478L14.6728 12.5Z" fill="#000201"/>
</svg>
