<svg width="21" height="20" viewBox="0 0 21 20" fill="none" xmlns="http://www.w3.org/2000/svg">
<path d="M10.2504 3.82909C9.34239 2.99418 8.1539 2.5308 6.92039 2.53076C6.2675 2.53144 5.6212 2.66123 5.01867 2.91265C4.41614 3.16408 3.86928 3.53217 3.40955 3.99576C1.44872 5.96493 1.44956 9.04493 3.41122 11.0058L9.52122 17.1158C9.66289 17.365 9.93622 17.5258 10.2504 17.5258C10.3794 17.5245 10.5063 17.4931 10.6209 17.4339C10.7355 17.3747 10.8347 17.2894 10.9104 17.185L17.0896 11.0058C19.0513 9.04409 19.0513 5.96493 17.0879 3.99243C16.6284 3.52969 16.082 3.16234 15.4801 2.9115C14.8781 2.66065 14.2326 2.53126 13.5804 2.53076C12.347 2.53096 11.1585 2.99432 10.2504 3.82909ZM15.9096 5.17076C17.2121 6.47993 17.2129 8.52493 15.9113 9.82743L10.2504 15.4883L4.58955 9.82743C3.28789 8.52493 3.28872 6.47993 4.58789 5.17409C5.22122 4.54409 6.04955 4.19743 6.92039 4.19743C7.79122 4.19743 8.61622 4.54409 9.24456 5.17243L9.66122 5.58909C9.73855 5.66655 9.83038 5.728 9.93148 5.76992C10.0326 5.81185 10.1409 5.83343 10.2504 5.83343C10.3598 5.83343 10.4682 5.81185 10.5693 5.76992C10.6704 5.728 10.7622 5.66655 10.8396 5.58909L11.2562 5.17243C12.5163 3.91493 14.6513 3.91826 15.9096 5.17076Z" fill="white"/>
</svg>
