<svg width="21" height="20" viewBox="0 0 21 20" fill="none" xmlns="http://www.w3.org/2000/svg">
<path d="M18.7895 7.64918C18.7371 7.4949 18.6407 7.35934 18.5122 7.25923C18.3836 7.15912 18.2286 7.09884 18.0662 7.08585L13.3154 6.70835L11.2595 2.15751C11.194 2.01094 11.0876 1.88645 10.9529 1.79906C10.8182 1.71167 10.6612 1.66513 10.5006 1.66504C10.3401 1.66495 10.183 1.71132 10.0482 1.79856C9.91344 1.8858 9.80681 2.01018 9.74118 2.15668L7.68534 6.70835L2.93451 7.08585C2.77489 7.09849 2.6223 7.15686 2.49498 7.25396C2.36766 7.35106 2.27101 7.48278 2.21659 7.63337C2.16218 7.78396 2.1523 7.94704 2.18813 8.1031C2.22397 8.25916 2.30402 8.40159 2.41868 8.51335L5.92951 11.9358L4.68785 17.3125C4.65014 17.4752 4.66223 17.6455 4.72253 17.8013C4.78283 17.9571 4.88857 18.0912 5.02601 18.1862C5.16346 18.2811 5.32628 18.3326 5.49333 18.3339C5.66039 18.3351 5.82397 18.2862 5.96285 18.1933L10.5003 15.1683L15.0379 18.1933C15.1798 18.2876 15.3472 18.3361 15.5175 18.3323C15.6879 18.3286 15.853 18.2728 15.9907 18.1724C16.1284 18.072 16.232 17.9319 16.2877 17.7709C16.3433 17.6098 16.3483 17.4356 16.302 17.2716L14.7779 11.9383L18.5579 8.53668C18.8054 8.31335 18.8962 7.96501 18.7895 7.64918Z" fill="#FF9533"/>
</svg>
