<svg width="21" height="18" viewBox="0 0 21 18" fill="none" xmlns="http://www.w3.org/2000/svg">
<path d="M10.4731 1.558C9.38353 0.556104 7.95733 4.65535e-05 6.47713 0C5.69366 0.000815702 4.9181 0.15656 4.19506 0.458268C3.47203 0.759977 2.81579 1.20169 2.26413 1.758C-0.088876 4.121 -0.0878762 7.817 2.26613 10.17L9.59813 17.502C9.76813 17.801 10.0961 17.994 10.4731 17.994C10.6279 17.9925 10.7802 17.9547 10.9178 17.8837C11.0553 17.8126 11.1743 17.7103 11.2651 17.585L18.6801 10.17C21.0341 7.816 21.0341 4.121 18.6781 1.754C18.1267 1.19872 17.471 0.757897 16.7487 0.456883C16.0264 0.15587 15.2517 0.000599606 14.4691 0C12.989 0.000241959 11.5628 0.556273 10.4731 1.558ZM17.2641 3.168C18.8271 4.739 18.8281 7.193 17.2661 8.756L10.4731 15.549L3.68012 8.756C2.11812 7.193 2.11913 4.739 3.67813 3.172C4.43813 2.416 5.43213 2 6.47713 2C7.52213 2 8.51213 2.416 9.26613 3.17L9.76613 3.67C9.85891 3.76295 9.96912 3.83668 10.0904 3.88699C10.2117 3.9373 10.3418 3.9632 10.4731 3.9632C10.6045 3.9632 10.7345 3.9373 10.8558 3.88699C10.9771 3.83668 11.0873 3.76295 11.1801 3.67L11.6801 3.17C13.1921 1.661 15.7541 1.665 17.2641 3.168Z" fill="#000201"/>
</svg>
