<svg width="40" height="40" viewBox="0 0 40 40" fill="none" xmlns="http://www.w3.org/2000/svg">
<circle cx="20" cy="20" r="20" fill="#23292E"/>
<path d="M30 15.9999C30.0097 15.9302 30.0097 15.8595 30 15.7899V15.7099C29.9828 15.6541 29.9593 15.6004 29.93 15.5499C29.917 15.5211 29.9002 15.4942 29.88 15.4699L29.78 15.3399L29.7 15.2799L29.58 15.1899L20.58 10.1899C20.428 10.1021 20.2555 10.0559 20.08 10.0559C19.9045 10.0559 19.732 10.1021 19.58 10.1899L10.58 15.1899L10.49 15.2599L10.38 15.3399C10.3509 15.3726 10.3273 15.4097 10.31 15.4499C10.278 15.4786 10.251 15.5124 10.23 15.5499C10.204 15.5938 10.1839 15.6408 10.17 15.6899C10.1644 15.723 10.1644 15.7568 10.17 15.7899C10.1012 15.8492 10.0437 15.9203 10 15.9999V23.9999C10.0013 24.1781 10.0502 24.3527 10.1416 24.5056C10.233 24.6586 10.3637 24.7843 10.52 24.8699L19.52 29.8699C19.5613 29.894 19.6048 29.9141 19.65 29.9299H19.75C19.9143 29.9697 20.0857 29.9697 20.25 29.9299H20.35L20.49 29.8699L29.49 24.8699C29.6445 24.783 29.7731 24.6567 29.8627 24.5039C29.9523 24.351 29.9997 24.1771 30 23.9999V15.9999ZM20 19.8699L13.06 15.9999L15.82 14.4799L22.65 18.3799L20 19.8699ZM20 12.1499L26.94 15.9999L24.7 17.2499L17.87 13.3399L20 12.1499ZM12 17.6999L19 21.6199V27.2999L12 23.4099V17.6999ZM21 27.2999V21.6199L24 19.9399V22.9999L26 21.9999V18.8199L28 17.7099V23.4099L21 27.2999Z" fill="#FEE3CB"/>
</svg>
